<svg id="visual" viewBox="0 0 960 540" width="960" height="540" xmlns="http://www.w3.org/2000/svg" xmlns:xlink="http://www.w3.org/1999/xlink" version="1.1"><rect x="0" y="0" width="960" height="540" fill="#001220"></rect><defs><linearGradient id="grad1_0" x1="43.8%" y1="0%" x2="100%" y2="100%"><stop offset="14.444444444444446%" stop-color="#001220" stop-opacity="1"></stop><stop offset="85.55555555555554%" stop-color="#001220" stop-opacity="1"></stop></linearGradient></defs><defs><linearGradient id="grad2_0" x1="0%" y1="0%" x2="56.3%" y2="100%"><stop offset="14.444444444444446%" stop-color="#001220" stop-opacity="1"></stop><stop offset="85.55555555555554%" stop-color="#001220" stop-opacity="1"></stop></linearGradient></defs><g transform="translate(960, 0)"><path d="M0 297C-31.2 253.9 -62.5 210.8 -110.5 191.4C-158.5 172 -223.3 176.4 -257.2 148.5C-291.1 120.6 -294 60.3 -297 0L0 0Z" fill="#FBB03B"></path></g><g transform="translate(0, 540)"><path d="M0 -297C23.2 -240 46.5 -183 95.5 -165.4C144.5 -147.8 219.3 -169.5 257.2 -148.5C295.1 -127.5 296 -63.7 297 0L0 0Z" fill="#FBB03B"></path></g></svg>